<svg width="91" height="91" fill="none" xmlns="http://www.w3.org/2000/svg"><circle cx="45.5" cy="45.5" r="45.5" fill="#FE206F"/><path d="M45.502 20C31.442 20 20 31.44 20 45.5S31.441 71 45.502 71c14.06 0 25.5-11.44 25.5-25.5S59.563 20 45.502 20zm8.394 27.64c-1.67-.264-5.1-.264-6.244 1.407-1.406 2.11 1.408 3.165 2.024 4.837.614 1.845-.88 1.142-1.408 2.725-.704 2.198 2.904 4.836 4.223 6.156.152.15.311.334.477.534a19.197 19.197 0 0 1-7.466 1.503c-6.174 0-11.683-2.914-15.217-7.44.724.558 1.491.844 2.223.577 1.346-.518 2.168-4.131 3.514-5.269 2.375-1.962 2.89-2.272 3.304-5.266.31-2.789 1.963-2.273 3.1-4.236 2.682-5.06-8.572-2.271-10.02-3.201-1.474-1.082-1.639-3.753-3.526-4.273 3.367-5.68 9.556-9.498 16.622-9.498 1.32 0 2.606.134 3.851.387-.92.817-1.807 1.664-2.767 2.442-1.86 1.55-4.44 2.789-4.959 5.475-.31 2.375 1.656 6.714 4.236 7.333 2.478.516 2.894-2.377 4.957-2.996 2.686-.825 4.959 2.686 7.233 3.512 3.198 1.344 1.858-1.033 1.756-3.098-.086-1.855 1.5-2.076 3.066-2.157a19.192 19.192 0 0 1 1.929 8.406 19.22 19.22 0 0 1-.626 4.88c-3.56.17-6.856-2.206-10.282-2.74z" fill="#1F1F1F"/></svg>