<svg width="27" height="20" fill="none" xmlns="http://www.w3.org/2000/svg"><path d="M26.492 5.554 13.835.07a.843.843 0 0 0-.671 0L.507 5.554c-.68.294-.673 1.258 0 1.549l12.657 5.484a.843.843 0 0 0 .67 0l8.947-3.876v8.985c0 .454.35.845.803.866a.844.844 0 0 0 .885-.842V8.405a.263.263 0 0 0-.23-.262l-10.848-1.4a.844.844 0 0 1 .156-1.68l12.054 1.554c.225.03.41.173.498.368.062.136.22.199.356.135.227-.106.424-.246.513-.563a.843.843 0 0 0-.476-1.003z" fill="#FE206F"/><path d="m12.492 14.136-7.062-3.06a.264.264 0 0 0-.369.241v3.028c0 2.839 3.707 5.062 8.438 5.062 4.732 0 8.438-2.223 8.438-5.062v-3.028a.264.264 0 0 0-.368-.242l-7.063 3.06a2.529 2.529 0 0 1-2.014 0z" fill="#FE206F"/></svg>