<svg width="45" height="45" fill="none" xmlns="http://www.w3.org/2000/svg"><circle cx="22.5" cy="22.5" r="22.5" fill="#323232"/><path d="M30.208 15.91a2.708 2.708 0 1 1-5.416 0 2.708 2.708 0 0 1 5.416 0z" fill="#FE206F"/><path d="M27.5 19.242a3.337 3.337 0 0 1-3.333-3.333 3.337 3.337 0 0 1 3.333-3.333 3.337 3.337 0 0 1 3.333 3.333 3.337 3.337 0 0 1-3.333 3.333zm0-5.416c-1.15 0-2.083.935-2.083 2.083 0 1.148.934 2.083 2.083 2.083 1.15 0 2.083-.935 2.083-2.083a2.086 2.086 0 0 0-2.083-2.083zM30.208 29.243a2.708 2.708 0 1 1-5.416 0 2.708 2.708 0 0 1 5.416 0z" fill="#FE206F"/><path d="M27.5 32.576a3.337 3.337 0 0 1-3.333-3.333 3.337 3.337 0 0 1 3.333-3.334 3.337 3.337 0 0 1 3.333 3.334 3.337 3.337 0 0 1-3.333 3.333zm0-5.417c-1.15 0-2.083.935-2.083 2.084 0 1.148.934 2.083 2.083 2.083 1.15 0 2.083-.935 2.083-2.083a2.086 2.086 0 0 0-2.083-2.084zM18.542 22.576a2.708 2.708 0 1 1-5.417 0 2.708 2.708 0 0 1 5.417 0z" fill="#FE206F"/><path d="M15.833 25.909a3.337 3.337 0 0 1-3.333-3.333 3.337 3.337 0 0 1 3.333-3.334 3.337 3.337 0 0 1 3.334 3.334 3.337 3.337 0 0 1-3.334 3.333zm0-5.417c-1.149 0-2.083.935-2.083 2.084 0 1.148.934 2.083 2.083 2.083 1.15 0 2.084-.935 2.084-2.083a2.086 2.086 0 0 0-2.084-2.084z" fill="#FE206F"/><path d="M17.8 22.176a.832.832 0 0 1-.413-1.558l7.733-4.408c.4-.23.908-.09 1.137.311.227.4.087.909-.312 1.137l-7.733 4.408a.827.827 0 0 1-.411.11zM25.533 29.05a.829.829 0 0 1-.412-.109l-7.733-4.408a.834.834 0 0 1 .825-1.448l7.733 4.408a.834.834 0 0 1-.413 1.558z" fill="#FE206F"/></svg>