<svg width="19" height="18" fill="none" xmlns="http://www.w3.org/2000/svg"><path d="M9.525 0C4.555 0 .526 4.045.526 9.036a9.035 9.035 0 0 0 6.156 8.574c.45.083.614-.196.614-.436 0-.215-.008-.783-.012-1.537-2.503.546-3.032-1.211-3.032-1.211-.408-1.044-.999-1.322-.999-1.322-.818-.56.06-.549.06-.549.904.064 1.379.931 1.379.931.803 1.38 2.107.983 2.62.75.081-.583.314-.981.572-1.207-1.998-.229-4.1-1.004-4.1-4.466 0-.986.351-1.793.927-2.425-.093-.228-.402-1.147.088-2.39 0 0 .756-.244 2.475.925.718-.2 1.487-.3 2.253-.303a8.607 8.607 0 0 1 2.254.304c1.717-1.169 2.472-.926 2.472-.926.49 1.245.183 2.163.09 2.391.578.632.925 1.439.925 2.426 0 3.47-2.104 4.234-4.108 4.458.322.279.61.83.61 1.673 0 1.208-.01 2.182-.01 2.478 0 .242.161.523.618.434a9.036 9.036 0 0 0 6.148-8.572c0-4.99-4.03-9.036-9.001-9.036z" fill="#616161"/></svg>