<svg width="19" height="18" fill="none" xmlns="http://www.w3.org/2000/svg"><path d="M12.901 0h-6.75A5.626 5.626 0 0 0 .526 5.625v6.75A5.626 5.626 0 0 0 6.151 18h6.75a5.626 5.626 0 0 0 5.625-5.625v-6.75A5.626 5.626 0 0 0 12.901 0zm3.938 12.375a3.942 3.942 0 0 1-3.938 3.938h-6.75a3.942 3.942 0 0 1-3.937-3.938v-6.75A3.942 3.942 0 0 1 6.15 1.687h6.75a3.942 3.942 0 0 1 3.938 3.938v6.75z" fill="#616161"/><path d="M9.526 4.5a4.5 4.5 0 1 0 0 9 4.5 4.5 0 0 0 0-9zm0 7.313A2.816 2.816 0 0 1 6.714 9a2.816 2.816 0 0 1 2.812-2.812A2.816 2.816 0 0 1 12.34 9a2.816 2.816 0 0 1-2.813 2.813zM14.364 4.762a.6.6 0 1 0 0-1.199.6.6 0 0 0 0 1.2z" fill="#616161"/></svg>