<svg width="9" height="8" fill="none" xmlns="http://www.w3.org/2000/svg"><path d="M.197 3.447c.082.02.164 0 .236-.051a3.01 3.01 0 0 1 .913-.534 3.017 3.017 0 0 1 3.17.698c.544.544.882 1.303.882 2.134 0 .349-.061.687-.164.995a2.755 2.755 0 0 1-.492.883.262.262 0 0 0 .04.369.282.282 0 0 0 .237.051 4.14 4.14 0 0 0 2.175-1.457 4.063 4.063 0 0 0-.35-5.345A4.048 4.048 0 0 0 3.973 0 4.08 4.08 0 0 0 1.46.872 4.045 4.045 0 0 0 .022 3.12c-.051.154.031.297.175.328zm1.57-2.144a3.52 3.52 0 0 1 4.678.277 3.52 3.52 0 0 1-.872 5.622c.05-.113.102-.226.143-.349.134-.369.195-.759.195-1.17 0-.974-.4-1.866-1.036-2.503a3.545 3.545 0 0 0-2.503-1.036c-.431 0-.842.072-1.221.216-.134.051-.267.102-.39.164a3.733 3.733 0 0 1 1.005-1.221z" fill="#CECECE"/></svg>