<svg width="9" height="9" fill="none" xmlns="http://www.w3.org/2000/svg"><path d="M4.5 7.513a.307.307 0 0 0-.308.307v.873a.307.307 0 0 0 .615 0V7.82a.307.307 0 0 0-.307-.307zM4.5 1.488c.17 0 .307-.138.307-.308V.307a.307.307 0 1 0-.615 0v.873c0 .17.138.308.308.308zM1.936 6.63l-.618.617a.307.307 0 1 0 .434.435l.618-.618a.307.307 0 1 0-.434-.434zM6.847 2.46c.079 0 .157-.03.217-.09l.618-.618a.307.307 0 0 0-.435-.434l-.617.617a.307.307 0 0 0 .217.525zM1.487 4.5a.307.307 0 0 0-.307-.307H.307a.307.307 0 0 0 0 .614h.873c.17 0 .307-.137.307-.307zM8.693 4.193H7.82a.307.307 0 1 0 0 .614h.873a.307.307 0 1 0 0-.614zM1.936 2.37a.306.306 0 0 0 .434 0 .307.307 0 0 0 0-.435l-.617-.617a.307.307 0 1 0-.435.434l.618.618zM7.065 6.63a.307.307 0 0 0-.435.434l.618.618a.306.306 0 0 0 .434 0 .307.307 0 0 0 0-.435l-.617-.617zM4.5 2.11A2.393 2.393 0 0 0 2.11 4.5 2.393 2.393 0 0 0 4.5 6.89 2.393 2.393 0 0 0 6.89 4.5 2.393 2.393 0 0 0 4.5 2.11zm0 4.166c-.98 0-1.776-.796-1.776-1.776S3.52 2.724 4.5 2.724c.98 0 1.776.797 1.776 1.776 0 .98-.797 1.776-1.776 1.776z" fill="#CECECE"/></svg>