<svg width="26" height="26" fill="none" xmlns="http://www.w3.org/2000/svg"><path clip-rule="evenodd" d="M17.156 25v-9.23h2.98l.445-3.596h-3.425V9.878c0-1.04.277-1.75 1.715-1.75l1.831-.003V4.91a23.333 23.333 0 00-2.67-.144c-2.641 0-4.45 1.678-4.45 4.757v2.65h-2.99v3.598h2.99V25h3.574z" stroke="#fff" stroke-width="2"/><path clip-rule="evenodd" d="M23.345 25H2.655A1.655 1.655 0 011 23.345V2.655C1 1.741 1.741 1 2.655 1h20.69C24.259 1 25 1.741 25 2.655v20.69c0 .914-.741 1.655-1.655 1.655z" stroke="#fff" stroke-width="2" stroke-linejoin="round"/></svg>