<svg xmlns="http://www.w3.org/2000/svg" width="44pt" height="44pt" viewBox="0 0 44 44"><g id="surface1" fill="#fff"><path d="M29.344 29.07c4.683-7.347 4.093-6.43 4.23-6.62a14.08 14.08 0 002.606-8.184C36.18 6.446 29.832 0 22 0 14.191 0 7.82 6.43 7.82 14.266c0 2.949.918 5.851 2.68 8.289l4.152 6.515c-4.437.684-11.988 2.72-11.988 7.196 0 1.632 1.066 3.957 6.14 5.77C12.349 43.304 17.036 44 22 44c9.285 0 19.336-2.617 19.336-7.734 0-4.48-7.54-6.512-11.992-7.196zm-16.692-7.933c-.011-.024-.027-.043-.043-.067a11.564 11.564 0 01-2.21-6.804c0-6.446 5.19-11.688 11.601-11.688 6.398 0 11.602 5.242 11.602 11.688 0 2.406-.73 4.71-2.118 6.675-.125.164.524-.843-9.484 14.86zM22 41.422c-10.14 0-16.758-2.98-16.758-5.156 0-1.461 3.399-3.868 10.934-4.805l4.738 7.43a1.285 1.285 0 002.172 0l4.734-7.43c7.535.937 10.938 3.344 10.938 4.805 0 2.156-6.559 5.156-16.758 5.156zm0 0"/><path d="M22 7.82a6.452 6.452 0 00-6.445 6.446A6.452 6.452 0 0022 20.71a6.452 6.452 0 006.445-6.445A6.452 6.452 0 0022 7.82zm0 10.313a3.871 3.871 0 01-3.867-3.867A3.871 3.871 0 0122 10.398a3.871 3.871 0 013.867 3.868A3.871 3.871 0 0122 18.133zm0 0"/></g></svg>