<svg xmlns="http://www.w3.org/2000/svg" width="50pt" height="50pt" viewBox="0 0 50 50"><path d="M45.605 7.871H4.395A4.401 4.401 0 000 12.266v25.468a4.401 4.401 0 004.395 4.395h41.21A4.401 4.401 0 0050 37.734V12.266a4.401 4.401 0 00-4.395-4.395zm-.574 2.93l-.586.488-17.703 14.742a2.724 2.724 0 01-3.484 0L5.555 11.29l-.586-.488zM2.93 12.918l14.422 12.008L2.93 34.527zm42.675 26.281H4.395a1.463 1.463 0 01-1.434-1.176l16.742-11.14 1.68 1.398A5.625 5.625 0 0025 29.59c1.285 0 2.57-.434 3.617-1.309l1.68-1.398 16.742 11.14a1.462 1.462 0 01-1.434 1.176zm1.465-4.672l-14.422-9.601L47.07 12.918zm0 0" fill="#fff" id="surface1"/></svg>