<svg width="31" height="31" fill="none" xmlns="http://www.w3.org/2000/svg"><path d="M16.813 1.792l3.354 7.291c.145.438.583.73 1.02.875l7.584 1.167c1.312 0 1.75 1.458.875 2.333l-5.542 5.688c-.291.291-.437.875-.437 1.312l1.312 7.875c.146 1.167-1.02 2.188-2.041 1.604l-6.855-3.791c-.437-.292-.875-.292-1.312 0l-6.854 3.791c-1.021.584-2.334-.291-2.042-1.604l1.313-7.875c.145-.437-.146-1.02-.438-1.312l-5.542-5.688c-.729-.875-.291-2.333.875-2.479l7.584-1.167c.437 0 .875-.437 1.02-.875l3.355-7.291c.729-1.021 2.187-1.021 2.77.146z" fill="#A5A5A5"/></svg>